<mxfile>
    <diagram id="FInSpqb_Rj6SujJBMxeu" name="Page-1">
        <mxGraphModel dx="1047" dy="765" grid="1" gridSize="10" guides="1" tooltips="1" connect="1" arrows="1" fold="1" page="1" pageScale="1" pageWidth="850" pageHeight="1100" math="0" shadow="0">
            <root>
                <mxCell id="0"/>
                <mxCell id="1" parent="0"/>
                <mxCell id="14" style="edgeStyle=orthogonalEdgeStyle;rounded=0;orthogonalLoop=1;jettySize=auto;html=1;entryX=0.25;entryY=0;entryDx=0;entryDy=0;" edge="1" parent="1" source="2" target="12">
                    <mxGeometry relative="1" as="geometry"/>
                </mxCell>
                <mxCell id="2" value="GitReposCommitExtractor" style="html=1;dropTarget=0;" vertex="1" parent="1">
                    <mxGeometry x="50" y="40" width="180" height="90" as="geometry"/>
                </mxCell>
                <mxCell id="3" value="" style="shape=module;jettyWidth=8;jettyHeight=4;" vertex="1" parent="2">
                    <mxGeometry x="1" width="20" height="20" relative="1" as="geometry">
                        <mxPoint x="-27" y="7" as="offset"/>
                    </mxGeometry>
                </mxCell>
                <mxCell id="15" style="edgeStyle=orthogonalEdgeStyle;rounded=0;orthogonalLoop=1;jettySize=auto;html=1;entryX=0;entryY=0;entryDx=0;entryDy=0;" edge="1" parent="1" source="4" target="12">
                    <mxGeometry relative="1" as="geometry"/>
                </mxCell>
                <mxCell id="4" value="GitlabCommitExtractor" style="html=1;dropTarget=0;" vertex="1" parent="1">
                    <mxGeometry x="50" y="170" width="180" height="90" as="geometry"/>
                </mxCell>
                <mxCell id="5" value="" style="shape=module;jettyWidth=8;jettyHeight=4;" vertex="1" parent="4">
                    <mxGeometry x="1" width="20" height="20" relative="1" as="geometry">
                        <mxPoint x="-27" y="7" as="offset"/>
                    </mxGeometry>
                </mxCell>
                <mxCell id="16" style="edgeStyle=orthogonalEdgeStyle;rounded=0;orthogonalLoop=1;jettySize=auto;html=1;entryX=0;entryY=0.5;entryDx=0;entryDy=0;" edge="1" parent="1" source="6" target="12">
                    <mxGeometry relative="1" as="geometry"/>
                </mxCell>
                <mxCell id="6" value="GithubCommitExtractor" style="html=1;dropTarget=0;" vertex="1" parent="1">
                    <mxGeometry x="50" y="300" width="180" height="90" as="geometry"/>
                </mxCell>
                <mxCell id="7" value="" style="shape=module;jettyWidth=8;jettyHeight=4;" vertex="1" parent="6">
                    <mxGeometry x="1" width="20" height="20" relative="1" as="geometry">
                        <mxPoint x="-27" y="7" as="offset"/>
                    </mxGeometry>
                </mxCell>
                <mxCell id="17" style="edgeStyle=orthogonalEdgeStyle;rounded=0;orthogonalLoop=1;jettySize=auto;html=1;entryX=0;entryY=1;entryDx=0;entryDy=0;" edge="1" parent="1" source="8" target="12">
                    <mxGeometry relative="1" as="geometry"/>
                </mxCell>
                <mxCell id="8" value="RedmineActivityExtractor" style="html=1;dropTarget=0;" vertex="1" parent="1">
                    <mxGeometry x="50" y="430" width="180" height="90" as="geometry"/>
                </mxCell>
                <mxCell id="9" value="" style="shape=module;jettyWidth=8;jettyHeight=4;" vertex="1" parent="8">
                    <mxGeometry x="1" width="20" height="20" relative="1" as="geometry">
                        <mxPoint x="-27" y="7" as="offset"/>
                    </mxGeometry>
                </mxCell>
                <mxCell id="18" style="edgeStyle=orthogonalEdgeStyle;rounded=0;orthogonalLoop=1;jettySize=auto;html=1;entryX=0.25;entryY=1;entryDx=0;entryDy=0;" edge="1" parent="1" source="10" target="12">
                    <mxGeometry relative="1" as="geometry"/>
                </mxCell>
                <mxCell id="10" value="JiraActivityExtractor" style="html=1;dropTarget=0;" vertex="1" parent="1">
                    <mxGeometry x="50" y="570" width="180" height="90" as="geometry"/>
                </mxCell>
                <mxCell id="11" value="" style="shape=module;jettyWidth=8;jettyHeight=4;" vertex="1" parent="10">
                    <mxGeometry x="1" width="20" height="20" relative="1" as="geometry">
                        <mxPoint x="-27" y="7" as="offset"/>
                    </mxGeometry>
                </mxCell>
                <mxCell id="21" style="edgeStyle=orthogonalEdgeStyle;rounded=0;orthogonalLoop=1;jettySize=auto;html=1;entryX=0;entryY=0.5;entryDx=0;entryDy=0;" edge="1" parent="1" source="12" target="19">
                    <mxGeometry relative="1" as="geometry"/>
                </mxCell>
                <mxCell id="12" value="WorkActivityAnalyzer" style="html=1;dropTarget=0;" vertex="1" parent="1">
                    <mxGeometry x="380" y="300" width="180" height="90" as="geometry"/>
                </mxCell>
                <mxCell id="13" value="" style="shape=module;jettyWidth=8;jettyHeight=4;" vertex="1" parent="12">
                    <mxGeometry x="1" width="20" height="20" relative="1" as="geometry">
                        <mxPoint x="-27" y="7" as="offset"/>
                    </mxGeometry>
                </mxCell>
                <mxCell id="19" value="WorkMetricsAggregator" style="html=1;dropTarget=0;" vertex="1" parent="1">
                    <mxGeometry x="650" y="300" width="180" height="90" as="geometry"/>
                </mxCell>
                <mxCell id="20" value="" style="shape=module;jettyWidth=8;jettyHeight=4;" vertex="1" parent="19">
                    <mxGeometry x="1" width="20" height="20" relative="1" as="geometry">
                        <mxPoint x="-27" y="7" as="offset"/>
                    </mxGeometry>
                </mxCell>
            </root>
        </mxGraphModel>
    </diagram>
</mxfile>